/* XPM */
static char *_6bdf07760724897b1e9e3b212140e95ZG7G9Ri55nbp1KYN[] = {
/* columns rows colors chars-per-pixel */
"32 32 13 1 ",
"  c #10162E",
". c #4C63E0",
"X c #A84111",
"o c #748F93",
"O c #1E1B80",
"+ c #3494CB",
"@ c #FCA89D",
"# c black",
"$ c #DEF9FC",
"% c #12274D",
"& c #FF4D00",
"* c #FAFA82",
"= c #453625",
/* pixels */
"                                ",
"          .......               ",
"            ......              ",
"   XX       .......             ",
"  XXXX      .ooooooooo          ",
"   XXX     ooOOOOOOOOO+         ",
"  XXXX    +OOOO@@@@@OOO         ",
"   XXX    +OOO@##@@#OO          ",
"   XXX       O@@@@@@O           ",
"    X       $O$$$@@$$ $         ",
"    X      $$$$$$$$$$$$$  +++   ",
"    X       $$$$$$$$$$$  +%%$+  ",
"   @X @   .$$$$$$$$$$$.  +%%%+  ",
"   @@@.. .$$$$$$$$$$$$$$ +%%@+  ",
"  .O@@O...O..$$$$$$$$$$. +@%@@  ",
"  .O@@O....O$$..$$$.$$...@@@@   ",
"  .OXOO.....O....$...O...OOO.   ",
"  .OXO.......OOO...OO....OOO.   ",
"   .X..... ...............OO.   ",
"    X..... ........... .....    ",
"    X ...  &.........&  ..      ",
"    X  .   .&**&&&&&&.          ",
"    X      ..**.......          ",
"    X     ...&.&.......         ",
"    X     ...&.&.......         ",
"    X     ...&.&.......         ",
"    X     .............         ",
"    X     .............         ",
"    X     ..........=           ",
"           ...... ====          ",
"            ===                 ",
"                                "
};
