/* XPM */
static char *da76cbdc2e234fb7ceae622992ec4b4bYgzqYGEhAbiDGnzl[] = {
/* columns rows colors chars-per-pixel */
"32 32 9 1 ",
"  c #10162E",
". c #A84111",
"X c #FAE898",
"o c #3B6983",
"O c #82A368",
"+ c #0C1317",
"@ c #DEF9FC",
"# c #211D1D",
"$ c #696A6A",
/* pixels */
"                                ",
"                                ",
"                                ",
"                                ",
"                                ",
"                                ",
"                                ",
"               ..               ",
"              X..X              ",
"              XXXX              ",
"               oo               ",
"               OO               ",
"               OO               ",
"               OO               ",
"               OO               ",
"               XX               ",
"              X++X              ",
"             X++++X             ",
"            X+@###+X            ",
"            X######O            ",
"            X##$$##O            ",
"            X######O            ",
"             X####O             ",
"              XXOO              ",
"                                ",
"                                ",
"                                ",
"                                ",
"                                ",
"                                ",
"                                ",
"                                "
};
