/* XPM */
static char *_275aa63f5024d1bf93fa65836bc0787UNPRrzMb5Q7dmS8n[] = {
/* columns rows colors chars-per-pixel */
"32 32 2 1 ",
"  c #3B6983",
". c #999F8E",
/* pixels */
" ............... ...............",
" ............... ...............",
" ...............................",
"................................",
"................................",
"................................",
"................................",
"................................",
"................................",
"................................",
"................................",
"................ ...............",
" ............... ...............",
" ............... ...............",
" ............... ...............",
".......     ...     ...      ...",
"....... ................. ......",
"....... ................. ......",
"....... ................. ......",
"....... ................. ......",
"......................... ......",
"......................... ......",
"......................... ......",
"......................... ......",
"......................... ......",
"......................... ......",
"....... ................. ......",
"....... ................. ......",
"....... ................. ......",
"....... ................. ......",
"....... ................. ......",
"..               ......        ."
};
